<svg xmlns="http://www.w3.org/2000/svg" width="400" height="400" viewBox="0 0 124 124" fill="none">
<path d="M9.177 58.437 0 78.353l10.805 14.318 23.299-11.324 7.16-23.039L27.727 49zM52.561 20.643l3.384-11.977-11.259-2.799-13.929 7.356-5.264 11.104 10.358 4.743zM36.313 31.101l-5.792 15.424 13.668 8.656 21.087-10.673 3.06-16.791-14.97-5.338zM75.363 0 59.515 8.104l-3.369 12.041 15.084 4.897 19.46-9.747.423-12.919z" fill="#f19601"></path>
  <path d="M114.625 22.552 92.496 17.15 72.71 27.043l-2.701 17.345 21.479 9.829 25.61-12.269-2.473-19.396zM91.73 44.453l-12.236-4.882 1.017-9.934 11.805-5.72 12.302 3.385.651 10.609-13.539 6.542zM8.31 34.266.645 48.141l8.625 7.697 18.191-9.177 6.053-15.132-10.186-4.931L8.31 34.266zm14.312 9.22-9.762 5.012-5.077-3.938 4.133-7.973 8.786-4.459 5.532 3.092-3.612 8.266zM45.054 58.73 38.48 82.162l19.623 17.475 29.093-13.311 1.073-27.953-21.413-10.479L45.054 58.73zm30.637 20.096-15.23 7.045-11.228-8.82 3.189-13.732 12.839-6.313 11.91 6.703-1.48 15.117z" fill="#c6bfaa"></path>
</svg>